{
  "asset": {
    "version": "2.0",
    "generator": "gltfeditor.com"
  },
  "buffers": [
    {
      "uri": "data:application/octet-stream;base64,",
      "byteLength": 18912
    },
    {
      "uri": "data:application/octet-stream;base64,",
      "byteLength": 138788
    },
    {
      "uri": "data:application/octet-stream;base64,",
      "byteLength": 840
    }
  ],
  "bufferViews": [
    {
      "buffer": 0,
      "byteLength": 14112,
      "byteOffset": 4800,
      "target": 34962,
      "byteStride": 32
    },
    {
      "buffer": 0,
      "byteLength": 4800,
      "byteOffset": 0,
      "target": 34963
    },
    {
      "buffer": 1,
      "byteLength": 124736,
      "byteOffset": 14052,
      "target": 34962,
      "byteStride": 32
    },
    {
      "buffer": 1,
      "byteLength": 14052,
      "byteOffset": 0,
      "target": 34963
    },
    {
      "buffer": 2,
      "byteLength": 768,
      "byteOffset": 72,
      "target": 34962,
      "byteStride": 32
    },
    {
      "buffer": 2,
      "byteLength": 72,
      "byteOffset": 0,
      "target": 34963
    }
  ],
  "accessors": [
    {
      "bufferView": 0,
      "byteOffset": 0,
      "componentType": 5126,
      "normalized": false,
      "count": 441,
      "max": [
        805.7172241210938,
        0,
        548.6329345703125
      ],
      "min": [
        -805.7171630859375,
        0,
        -548.6329956054688
      ],
      "type": "VEC3"
    },
    {
      "bufferView": 0,
      "byteOffset": 12,
      "componentType": 5126,
      "normalized": false,
      "count": 441,
      "max": [
        0,
        1,
        0
      ],
      "min": [
        0,
        1,
        0
      ],
      "type": "VEC3"
    },
    {
      "bufferView": 0,
      "byteOffset": 24,
      "componentType": 5126,
      "normalized": false,
      "count": 441,
      "max": [
        1,
        1
      ],
      "min": [
        0,
        0
      ],
      "type": "VEC2"
    },
    {
      "bufferView": 1,
      "byteOffset": 0,
      "componentType": 5123,
      "normalized": false,
      "count": 2400,
      "max": [
        440
      ],
      "min": [
        0
      ],
      "type": "SCALAR"
    },
    {
      "bufferView": 2,
      "byteOffset": 0,
      "componentType": 5126,
      "normalized": false,
      "count": 3898,
      "max": [
        319492.0625,
        26250,
        286487.5
      ],
      "min": [
        -319492.0625,
        -26250,
        -286487.5
      ],
      "type": "VEC3"
    },
    {
      "bufferView": 2,
      "byteOffset": 12,
      "componentType": 5126,
      "normalized": false,
      "count": 3898,
      "max": [
        0.9998912811279297,
        1,
        0.897632896900177
      ],
      "min": [
        -0.9999428987503052,
        -1,
        -0.9829308986663818
      ],
      "type": "VEC3"
    },
    {
      "bufferView": 2,
      "byteOffset": 24,
      "componentType": 5126,
      "normalized": false,
      "count": 3898,
      "max": [
        0.9940440654754639,
        0.9939724206924438
      ],
      "min": [
        0.0059559037908911705,
        0.006027582101523876
      ],
      "type": "VEC2"
    },
    {
      "bufferView": 3,
      "byteOffset": 0,
      "componentType": 5123,
      "normalized": false,
      "count": 7026,
      "max": [
        3897
      ],
      "min": [
        0
      ],
      "type": "SCALAR"
    },
    {
      "bufferView": 4,
      "byteOffset": 0,
      "componentType": 5126,
      "normalized": false,
      "count": 24,
      "max": [
        63.85231018066406,
        8088.62158203125,
        10.465116500854492
      ],
      "min": [
        -63.85231018066406,
        -4.63603222651543e-13,
        -1.0100528235795683e-14
      ],
      "type": "VEC3"
    },
    {
      "bufferView": 4,
      "byteOffset": 12,
      "componentType": 5126,
      "normalized": false,
      "count": 24,
      "max": [
        1,
        1,
        1
      ],
      "min": [
        -1,
        -1,
        -1
      ],
      "type": "VEC3"
    },
    {
      "bufferView": 4,
      "byteOffset": 24,
      "componentType": 5126,
      "normalized": false,
      "count": 24,
      "max": [
        1,
        0.9999970197677612
      ],
      "min": [
        1.1223494262307349e-17,
        -0.00017010021838359535
      ],
      "type": "VEC2"
    },
    {
      "bufferView": 5,
      "byteOffset": 0,
      "componentType": 5123,
      "normalized": false,
      "count": 36,
      "max": [
        23
      ],
      "min": [
        0
      ],
      "type": "SCALAR"
    }
  ],
  "scene": 0,
  "scenes": [
    {
      "nodes": [
        0,
        2,
        3
      ],
      "name": "environmental2"
    }
  ],
  "nodes": [
    {
      "name": "Plane",
      "matrix": [
        1,
        0,
        0,
        0,
        0,
        1,
        0,
        0,
        0,
        0,
        1,
        0,
        0,
        98.65655517578125,
        0,
        1
      ],
      "mesh": 0
    },
    {
      "name": "Building",
      "matrix": [
        1,
        0,
        0,
        0,
        0,
        1,
        0,
        0,
        0,
        0,
        1,
        0,
        683.3955078125,
        24465.6640625,
        -872.4365234375,
        1
      ],
      "mesh": 1
    },
    {
      "name": "color scene.1",
      "children": [
        1
      ],
      "matrix": [
        0.001532088965177536,
        0,
        0.0012855753302574158,
        0,
        0,
        0.0020000000949949026,
        0,
        0,
        -0.0012855753302574158,
        0,
        0.001532088965177536,
        0,
        2.469326972961426,
        102.32951354980469,
        -1.438596487045288,
        1
      ]
    },
    {
      "name": "Cube",
      "matrix": [
        0,
        0,
        -8.600000381469727,
        0,
        0.20000000298023224,
        0,
        0,
        0,
        0,
        -8.600000381469727,
        0,
        0,
        -808.5614624023438,
        98.39818572998047,
        -0.9805024862289429,
        1
      ],
      "mesh": 2
    }
  ],
  "meshes": [
    {
      "primitives": [
        {
          "attributes": {
            "POSITION": 0,
            "NORMAL": 1,
            "TEXCOORD_0": 2
          },
          "targets": [],
          "material": 0,
          "mode": 4,
          "indices": 3
        }
      ]
    },
    {
      "primitives": [
        {
          "attributes": {
            "POSITION": 4,
            "NORMAL": 5,
            "TEXCOORD_0": 6
          },
          "targets": [],
          "material": 1,
          "mode": 4,
          "indices": 7
        }
      ]
    },
    {
      "primitives": [
        {
          "attributes": {
            "POSITION": 8,
            "NORMAL": 9,
            "TEXCOORD_0": 10
          },
          "targets": [],
          "material": 2,
          "mode": 4,
          "indices": 11
        }
      ]
    }
  ],
  "materials": [
    {
      "pbrMetallicRoughness": {
        "baseColorFactor": [
          1,
          1,
          1,
          1
        ],
        "metallicFactor": 0,
        "roughnessFactor": 0.5
      },
      "emissiveFactor": [
        0,
        0,
        0
      ],
      "alphaMode": "OPAQUE",
      "doubleSided": true
    },
    {
      "pbrMetallicRoughness": {
        "baseColorFactor": [
          1,
          1,
          1,
          1
        ],
        "metallicFactor": 1,
        "roughnessFactor": 1
      },
      "emissiveFactor": [
        0,
        0,
        0
      ],
      "alphaMode": "OPAQUE",
      "doubleSided": true
    },
    {
      "pbrMetallicRoughness": {
        "baseColorFactor": [
          1,
          1,
          1,
          1
        ],
        "metallicFactor": 1,
        "roughnessFactor": 1
      },
      "emissiveFactor": [
        0,
        0,
        0
      ],
      "alphaMode": "OPAQUE",
      "doubleSided": true
    }
  ]
}