{
	"asset":{
		"version":"2.0",
		"generator":"Created using the official Cinema 4D glTF Exporter 1.000x290161"
	},
	"scenes":[{
		"nodes":[0]
	}],
	"nodes":[{
		"name":"color scene",
		"translation":[2.469326972961426,
		102.32951354980469,
		-1.438596487045288],
		"rotation":[0.0,
		-0.3420201539993286,
		0.0,
		0.9396926164627075],
		"scale":[0.0020000000949949028,
		0.0020000000949949028,
		0.0020000000949949028],
		"children":[1,
		2]
	},
	{
		"name":"Building",
		"translation":[683.3955078125,
		24465.6640625,
		-872.4365234375],
		"rotation":[0.0,
		0.0,
		0.0,
		-1.0],
		"scale":[1.0,
		1.0,
		1.0],
		"mesh":0
	},
	{
		"name":"Cube",
		"translation":[-310495.5625,
		-1965.664794921875,
		260835.71875],
		"rotation":[-0.29883623123168948,
		-0.6408563852310181,
		0.6408563852310181,
		-0.29883623123168948],
		"scale":[4300.0,
		100.0,
		4300.0],
		"mesh":1
	}],
	"meshes":[{
		"primitives":[{
			"attributes":{
				"POSITION":1,
				"NORMAL":2,
				"TEXCOORD_0":3
			},
			"indices":0,
			"material":0
		}]
	},
	{
		"primitives":[{
			"attributes":{
				"POSITION":5,
				"NORMAL":6,
				"TEXCOORD_0":7
			},
			"indices":4,
			"material":1
		}]
	}],
	"accessors":[{
		"bufferView":0,
		"type":"SCALAR",
		"componentType":5123,
		"count":7026,
		"byteOffset":0,
		"min":[0],
		"max":[3897]
	},
	{
		"bufferView":1,
		"type":"VEC3",
		"componentType":5126,
		"count":3898,
		"byteOffset":0,
		"min":[-319492.0625,
		-26250.0,
		-286487.5],
		"max":[319492.0625,
		26250.0,
		286487.5]
	},
	{
		"bufferView":1,
		"type":"VEC3",
		"componentType":5126,
		"count":3898,
		"byteOffset":12,
		"min":[-0.9999428987503052,
		-1.0,
		-0.9829308986663818],
		"max":[0.9998912811279297,
		1.0,
		0.897632896900177]
	},
	{
		"bufferView":1,
		"type":"VEC2",
		"componentType":5126,
		"count":3898,
		"byteOffset":24,
		"min":[0.0059559037908911709,
		0.006027582101523876],
		"max":[0.9940440654754639,
		0.9939724206924439]
	},
	{
		"bufferView":2,
		"type":"SCALAR",
		"componentType":5123,
		"count":36,
		"byteOffset":0,
		"min":[0],
		"max":[23]
	},
	{
		"bufferView":3,
		"type":"VEC3",
		"componentType":5126,
		"count":24,
		"byteOffset":0,
		"min":[-63.85231018066406,
		-4.63603222651543e-13,
		-1.0100528235795683e-14],
		"max":[63.85231018066406,
		8088.62158203125,
		10.465116500854493]
	},
	{
		"bufferView":3,
		"type":"VEC3",
		"componentType":5126,
		"count":24,
		"byteOffset":12,
		"min":[-1.0,
		-1.0,
		-1.0],
		"max":[1.0,
		1.0,
		1.0]
	},
	{
		"bufferView":3,
		"type":"VEC2",
		"componentType":5126,
		"count":24,
		"byteOffset":24,
		"min":[0.008505240082740784,
		0.009595034644007683],
		"max":[0.9914947748184204,
		0.9904049634933472]
	}],
	"bufferViews":[{
		"buffer":0,
		"byteOffset":0,
		"byteLength":14052,
		"target":34963
	},
	{
		"buffer":0,
		"byteOffset":14052,
		"byteLength":124736,
		"target":34962,
		"byteStride":32
	},
	{
		"buffer":1,
		"byteOffset":0,
		"byteLength":72,
		"target":34963
	},
	{
		"buffer":1,
		"byteOffset":72,
		"byteLength":768,
		"target":34962,
		"byteStride":32
	}],
	"buffers":[{
		"uri":"data:application/octet-stream;base64,",
		"byteLength":138788
	},
	{
		"uri":"data:application/octet-stream;base64,",
		"byteLength":840
	}],
	"images":[{
		"uri":"data:image/jpeg;base64,"
	}],
	"samplers":[{
		"magFilter":9729,
		"minFilter":9729,
		"wrapS":10497,
		"wrapT":10497
	}],
	"textures":[{
		"sampler":0,
		"source":0
	}],
	"materials":[{
		"pbrMetallicRoughness":{
			"baseColorTexture":{
				"index":0
			},
			"baseColorFactor":[1.0,
			1.0,
			1.0,
			1.0],
			"metallicFactor":0.0,
			"roughnessFactor":0.5
		},
		"emissiveFactor":[0.0,
		0.0,
		0.0],
		"alphaMode":"OPAQUE",
		"doubleSided":true,
		"name":"Building object"
	},
	{
		"pbrMetallicRoughness":{
			"baseColorFactor":[0.58,
			0.45616999999999977,
			0.22620000000000008,
			1.0],
			"metallicFactor":1.0,
			"roughnessFactor":1.0
		},
		"emissiveFactor":[0.0,
		0.0,
		0.0],
		"alphaMode":"OPAQUE",
		"doubleSided":true,
		"name":"Mat.4"
	}]
}